# Blender 5.2.0 LTS
# www.blender.org
mtllib booster.mtl
o BoosterPack
v -2.110000 0.038279 1.080000
v -2.110000 0.003442 1.080000
v -2.110000 0.038279 -1.080000
v -2.110000 0.003442 -1.080000
v 1.730000 0.063314 1.080000
v 1.730000 0.034793 1.080000
v 1.730000 0.020174 -1.080000
v 1.730000 0.000690 -1.080000
v 1.730000 0.002262 0.998920
v -2.110000 0.007953 0.998920
v 1.730000 0.030787 0.998920
v -2.110000 -0.026884 0.998920
v 1.538190 0.034517 1.080000
v 1.538190 0.020174 -1.080000
v 1.538190 0.000690 -1.080000
v 1.538190 0.063314 1.080000
v 1.538190 -0.008656 0.998920
v 1.538190 0.030123 0.998920
v 1.350677 -0.008874 -1.080000
v 1.350677 0.070684 1.080000
v 1.350677 0.073642 0.998920
v 1.350677 -0.018477 1.080000
v 1.350677 0.031666 -1.080000
v 1.350677 -0.021981 0.998920
v 1.162112 -0.029797 -1.080000
v 1.162112 0.050963 1.080000
v 1.162112 0.079704 0.998920
v 1.162112 -0.049948 1.080000
v 1.162112 0.038799 -1.080000
v 1.162112 -0.079592 0.998920
v 0.956268 -0.050561 -1.080000
v 0.956268 0.051198 1.080000
v 0.956268 0.080000 0.998920
v 0.956268 -0.050575 1.080000
v 0.956268 0.051198 -1.080000
v 0.956268 -0.080000 0.998920
v 1.730000 0.034406 -1.016993
v -2.110000 0.091108 -1.016993
v 1.730000 0.053889 -1.016993
v -2.110000 0.056271 -1.016993
v 1.538190 0.033189 -1.016993
v 1.538190 0.053889 -1.016993
v 1.350677 0.033512 -1.016993
v 1.350677 -0.011518 -1.016993
v 1.162112 0.062015 -1.016993
v 1.162112 -0.049657 -1.016993
v 0.956269 0.080000 -1.016993
v 0.956269 -0.080000 -1.016993
v -1.976613 -0.018206 -1.080000
v -1.976613 0.038279 1.080000
v -1.976613 0.007953 0.998920
v -1.976613 -0.018206 1.080000
v -1.976613 0.038279 -1.080000
v -1.976613 -0.048532 0.998920
v -1.976613 0.091108 -1.016993
v -1.976613 0.034623 -1.016993
v -1.768706 -0.057156 1.080000
v -1.768706 0.060376 -1.080000
v -1.768706 -0.057156 0.998920
v -1.768706 -0.057156 -1.016993
v -1.768706 -0.057156 -1.080000
v -1.768706 0.060376 1.080000
v -1.768706 0.060376 0.998920
v -1.768706 0.060376 -1.016993
v -1.585032 -0.050575 1.080000
v -1.585032 0.051163 -1.080000
v -1.585033 -0.080000 0.998920
v -1.585032 -0.080000 -1.016993
v -1.585032 -0.050575 -1.080000
v -1.585033 0.051163 1.080000
v -1.585033 0.079945 0.998920
v -1.585032 0.079945 -1.016993
v -1.385137 -0.050575 1.080000
v -1.385137 0.051198 -1.080000
v -1.385137 -0.080000 0.998920
v -1.385137 -0.080000 -1.016993
v -1.385137 -0.050575 -1.080000
v -1.385137 0.051198 1.080000
v -1.385138 0.080000 0.998920
v -1.385137 0.080000 -1.016993
v 1.730000 0.060796 0.904406
v -2.110000 0.056271 0.904406
v 1.730000 0.032692 0.904406
v -2.110000 0.091108 0.904406
v 1.538190 0.022003 0.904406
v 1.538190 0.060796 0.904406
v 1.350677 0.069450 0.904406
v 1.350677 -0.023934 0.904406
v 1.162112 0.079126 0.904406
v 1.162112 -0.078173 0.904406
v 0.956268 0.080000 0.904406
v 0.956268 -0.080000 0.904406
v -1.976613 0.034623 0.904406
v -1.976613 0.091108 0.904406
v -1.768706 -0.057156 0.904406
v -1.768706 0.060376 0.904406
v -1.585033 -0.080000 0.904406
v -1.585033 0.079945 0.904406
v -1.385137 -0.080000 0.904406
v -1.385138 0.080000 0.904406
v 1.730000 -0.012921 0.748018
v -2.110000 0.007953 0.748018
v 1.538190 0.000053 0.748018
v 1.538190 0.014474 0.748018
v 1.350677 0.031279 0.748018
v 1.350677 -0.034794 0.748018
v 1.162112 0.077158 0.748018
v 1.162112 -0.075916 0.748018
v 0.956268 0.080000 0.748018
v 0.956268 -0.080000 0.748018
v -1.976613 -0.048532 0.748018
v -1.976613 0.007953 0.748018
v -1.768706 -0.057156 0.748018
v -1.768706 0.060376 0.748018
v -1.585033 -0.080000 0.748018
v -1.585033 0.079945 0.748018
v -1.385137 -0.080000 0.748018
v -1.385138 0.080000 0.748018
v 1.730000 0.014474 0.748018
v -2.110000 -0.026884 0.748018
v 1.730000 0.029835 0.580644
v -2.110000 0.091108 0.580644
v 1.538190 -0.009914 0.580644
v 1.538190 0.025185 0.580644
v 1.350677 0.077701 0.580644
v 1.350677 -0.037045 0.580644
v 1.162112 0.075974 0.580644
v 1.162112 -0.073382 0.580644
v 0.956268 0.080000 0.580644
v 0.956268 -0.080000 0.580644
v -1.976613 0.034623 0.580644
v -1.976613 0.091108 0.580644
v -1.768706 -0.057156 0.580644
v -1.768706 0.060376 0.580644
v -1.585032 -0.080000 0.580644
v -1.585033 0.079945 0.580644
v -1.385137 -0.080000 0.580644
v -1.385137 0.080000 0.580644
v 1.730000 0.056346 0.580644
v -2.110000 0.056271 0.580644
v 1.730000 -0.048329 -0.881412
v -2.110000 0.007953 -0.881412
v 1.538190 -0.050150 -0.881412
v 1.538190 -0.028238 -0.881411
v 1.350677 0.035320 -0.881412
v 1.350677 -0.013012 -0.881412
v 1.162112 0.063200 -0.881412
v 1.162112 -0.051671 -0.881412
v 0.956269 0.080000 -0.881412
v 0.956269 -0.080000 -0.881412
v -1.976613 -0.048532 -0.881412
v -1.976613 0.007953 -0.881412
v -1.768706 -0.057156 -0.881412
v -1.768706 0.060376 -0.881412
v -1.585032 -0.080000 -0.881412
v -1.585032 0.079945 -0.881412
v -1.385137 -0.080000 -0.881412
v -1.385137 0.080000 -0.881412
v 1.730000 -0.028238 -0.881412
v -2.110000 -0.026884 -0.881412
v 1.730000 0.057242 -0.734959
v -2.110000 0.056271 -0.734960
v 1.730000 0.036494 -0.734959
v -2.110000 0.091108 -0.734960
v 1.538190 0.034022 -0.734959
v 1.538190 0.057242 -0.734959
v 1.350677 0.037273 -0.734959
v 1.350677 -0.014626 -0.734959
v 1.162112 0.064480 -0.734959
v 1.162112 -0.053845 -0.734959
v 0.956269 0.080000 -0.734959
v 0.956269 -0.080000 -0.734959
v -1.976613 0.034623 -0.734960
v -1.976613 0.091108 -0.734960
v -1.768706 -0.057156 -0.734960
v -1.768706 0.060376 -0.734960
v -1.585032 -0.080000 -0.734960
v -1.585032 0.079945 -0.734960
v -1.385137 -0.080000 -0.734960
v -1.385137 0.080000 -0.734960
v 1.730000 -0.024454 -0.563177
v -2.110000 -0.026884 -0.563178
v 1.730000 -0.045972 -0.563177
v -2.110000 0.007953 -0.563178
v 1.538190 -0.049210 -0.563177
v 1.538190 -0.024454 -0.563177
v 1.350677 0.039563 -0.563177
v 1.350677 -0.016518 -0.563177
v 1.162112 0.065981 -0.563177
v 1.162112 -0.056396 -0.563177
v 0.956268 0.080000 -0.563177
v 0.956268 -0.080000 -0.563177
v -1.976613 -0.048532 -0.563178
v -1.976613 0.007953 -0.563178
v -1.768706 -0.057156 -0.563178
v -1.768706 0.060376 -0.563178
v -1.585032 -0.080000 -0.563178
v -1.585033 0.079945 -0.563178
v -1.385137 -0.080000 -0.563178
v -1.385137 0.080000 -0.563178
v 1.730000 0.061094 -0.411034
v -2.110000 0.056271 -0.411034
v 1.730000 0.038894 -0.411034
v -2.110000 0.091108 -0.411034
v 1.538190 0.034978 -0.411034
v 1.538190 0.061094 -0.411034
v 1.350677 0.041592 -0.411034
v 1.350677 -0.018194 -0.411034
v 1.162112 0.067310 -0.411034
v 1.162112 -0.058655 -0.411034
v 0.956268 0.080000 -0.411034
v 0.956268 -0.080000 -0.411034
v -1.976613 0.034623 -0.411034
v -1.976613 0.091108 -0.411034
v -1.768706 -0.057156 -0.411034
v -1.768706 0.060376 -0.411034
v -1.585032 -0.080000 -0.411034
v -1.585033 0.079945 -0.411034
v -1.385137 -0.080000 -0.411034
v -1.385137 0.080000 -0.411034
v 1.730000 -0.013875 -0.287793
v -2.110000 -0.026884 -0.287794
v 1.730000 -0.036627 -0.287793
v -2.110000 0.007953 -0.287794
v 1.538190 -0.041091 -0.287794
v 1.538190 -0.013875 -0.287793
v 1.350677 0.043236 -0.287794
v 1.350677 -0.019552 -0.287794
v 1.162112 0.068387 -0.287794
v 1.162112 -0.060485 -0.287794
v 0.956268 0.080000 -0.287794
v 0.956268 -0.080000 -0.287794
v -1.976613 -0.048532 -0.287794
v -1.976613 0.007953 -0.287794
v -1.768706 -0.057156 -0.287794
v -1.768706 0.060376 -0.287794
v -1.585032 -0.080000 -0.287794
v -1.585033 0.079945 -0.287794
v -1.385137 -0.080000 -0.287794
v -1.385137 0.080000 -0.287794
v 1.730000 0.059961 -0.136204
v -2.110000 0.056271 -0.136205
v 1.730000 0.036529 -0.136204
v -2.110000 0.091108 -0.136205
v 1.538190 0.031390 -0.136205
v 1.538190 0.059961 -0.136204
v 1.350677 0.045257 -0.136205
v 1.350677 -0.021222 -0.136205
v 1.162112 0.069712 -0.136205
v 1.162112 -0.062736 -0.136205
v 0.956268 0.080000 -0.136204
v 0.956268 -0.080000 -0.136204
v -1.976613 0.034623 -0.136205
v -1.976613 0.091108 -0.136205
v -1.768706 -0.057156 -0.136205
v -1.768706 0.060376 -0.136205
v -1.585032 -0.080000 -0.136205
v -1.585033 0.079945 -0.136205
v -1.385137 -0.080000 -0.136205
v -1.385137 0.080000 -0.136205
v 1.730000 -0.009314 0.033006
v -2.110000 -0.026884 0.033006
v 1.730000 -0.033505 0.033006
v -2.110000 0.007953 0.033006
v 1.538190 -0.039398 0.033006
v 1.538190 -0.009314 0.033006
v 1.350677 0.047514 0.033006
v 1.350677 -0.023086 0.033006
v 1.162112 0.071190 0.033006
v 1.162112 -0.065249 0.033006
v 0.956268 0.080000 0.033006
v 0.956268 -0.080000 0.033006
v -1.976613 -0.048532 0.033006
v -1.976613 0.007953 0.033006
v -1.768706 -0.057156 0.033006
v -1.768706 0.060376 0.033006
v -1.585032 -0.080000 0.033006
v -1.585033 0.079945 0.033006
v -1.385137 -0.080000 0.033006
v -1.385137 0.080000 0.033006
v 1.730000 -0.001391 0.414787
v -2.110000 -0.026884 0.414786
v 1.730000 -0.027233 0.414787
v -2.110000 0.007953 0.414786
v 1.538190 -0.050922 0.414787
v 1.538190 -0.001383 0.414787
v 1.350677 0.052366 0.414787
v 1.350677 -0.027469 0.414787
v 1.162112 0.074526 0.414787
v 1.162112 -0.070918 0.414787
v 0.956268 0.080000 0.414787
v 0.956268 -0.080000 0.414787
v -1.976613 -0.048532 0.414786
v -1.976613 0.007953 0.414786
v -1.768706 -0.057156 0.414786
v -1.768706 0.060376 0.414786
v -1.585032 -0.080000 0.414787
v -1.585033 0.079945 0.414787
v -1.385137 -0.080000 0.414787
v -1.385137 0.080000 0.414787
v 1.730000 0.038595 0.212021
v -2.110000 0.091108 0.212020
v 1.538190 0.031905 0.212020
v 1.538190 0.063588 0.212020
v 1.350677 0.049901 0.212020
v 1.350677 -0.025059 0.212020
v 1.162112 0.072755 0.212020
v 1.162112 -0.067907 0.212020
v 0.956268 0.080000 0.212020
v 0.956268 -0.080000 0.212020
v -1.976613 0.034623 0.212020
v -1.976613 0.091108 0.212020
v -1.768706 -0.057156 0.212020
v -1.768706 0.060376 0.212020
v -1.585032 -0.080000 0.212020
v -1.585033 0.079945 0.212020
v -1.385137 -0.080000 0.212020
v -1.385137 0.080000 0.212020
v 1.730000 0.063588 0.212021
v -2.110000 0.056271 0.212020
vn -0.0067 0.9098 -0.4149
vn -0.0000 0.8817 -0.4718
vn -0.0000 0.6810 -0.7323
vn -0.0061 0.6228 -0.7824
vn -0.0000 -0.0000 -1.0000
vn 1.0000 -0.0000 -0.0000
vn -0.1234 -0.7604 0.6376
vn -1.0000 -0.0000 -0.0000
vn -0.0000 -0.0000 1.0000
vn -0.1451 -0.9349 0.3239
vn -0.1503 -0.9260 0.3463
vn -0.1149 -0.9739 0.1958
vn -0.0016 0.9268 -0.3756
vn 0.1322 0.9744 -0.1817
vn 0.0210 -0.7199 0.6937
vn 0.0141 -0.4837 0.8751
vn 0.0264 -0.9058 0.4229
vn 0.0028 -0.8852 0.4651
vn -0.0191 0.8046 -0.5936
vn -0.0228 0.9622 -0.2715
vn 0.0721 0.9334 -0.3516
vn 0.0923 0.9766 -0.1942
vn 0.0792 0.8659 -0.4939
vn -0.0074 0.7051 0.7090
vn -0.0344 0.9501 0.3101
vn -0.0355 0.9808 0.1917
vn -0.0165 0.9636 0.2667
vn 0.1675 -0.9474 0.2727
vn 0.1860 -0.9506 0.2485
vn 0.2024 -0.9778 0.0537
vn 0.1394 -0.9636 0.2283
vn 0.0005 0.8148 0.5797
vn 0.0006 0.9424 0.3346
vn 0.0162 0.9130 -0.4076
vn 0.0385 0.8310 -0.5550
vn 0.2255 -0.9545 0.1951
vn 0.2754 -0.9607 0.0347
vn 0.0019 -0.7686 0.6398
vn 0.1711 -0.9789 -0.1121
vn 0.1502 -0.9768 -0.1524
vn 0.1483 -0.9694 -0.1958
vn 0.1524 -0.9729 -0.1738
vn -0.0001 0.9095 -0.4157
vn -0.0001 0.7364 -0.6766
vn -0.0001 0.8127 0.5827
vn -0.0001 0.9423 0.3347
vn 0.0010 -0.8123 0.5832
vn 0.0012 -0.9398 0.3417
vn 0.0024 -0.9396 0.3423
vn 0.0195 -0.9104 -0.4133
vn 0.0674 -0.8444 -0.5315
vn 0.1631 -0.9866 -0.0095
vn 0.1360 -0.9907 -0.0074
vn 0.1411 -0.9900 -0.0074
vn -0.0001 1.0000 -0.0000
vn -0.0000 1.0000 -0.0000
vn 0.2007 -0.9796 -0.0127
vn 0.0811 0.9967 -0.0044
vn 0.1057 0.9944 -0.0068
vn 0.1105 0.9938 -0.0071
vn 0.0842 0.9964 -0.0044
vn 0.0097 -0.8811 -0.4729
vn 0.0193 -0.9542 -0.2985
vn 0.0089 -0.8740 -0.4858
vn 0.1464 0.9892 -0.0109
vn 0.1479 0.9889 -0.0109
vn 0.1097 0.9530 0.2823
vn 0.0068 -0.8528 -0.5223
vn -0.2174 -0.9262 -0.3081
vn -0.1370 -0.8444 -0.5179
vn -0.1424 -0.8511 -0.5053
vn -0.0000 0.8553 0.5181
vn -0.2249 -0.9316 -0.2857
vn -0.0000 0.8524 0.5228
vn -0.0089 0.8749 0.4842
vn -0.0121 0.8826 0.4700
vn -0.0000 0.9366 -0.3503
vn -0.0000 0.5114 -0.8593
vn 0.0027 0.4028 -0.9153
vn -0.0000 0.7663 -0.6425
vn 0.0045 0.8088 -0.5881
vn -0.0727 -0.9809 0.1803
vn -0.0269 0.9541 0.2981
vn -0.2785 -0.8858 0.3713
vn -0.0121 -0.9290 -0.3698
vn -0.0431 -0.9729 -0.2272
vn -0.0409 -0.9244 -0.3793
vn -0.0164 -0.7346 -0.6783
vn -0.0177 -0.8069 0.5905
vn -0.0102 0.7879 0.6157
vn -0.0126 -0.9554 0.2952
vn -0.1234 -0.9924 -0.0000
vn -0.0498 0.9549 0.2928
vn -0.1735 0.9681 -0.1810
vn -0.0096 0.9272 -0.3744
vn -0.0099 0.9583 -0.2856
vn -0.0000 -1.0000 -0.0000
vn -0.0000 -0.8064 0.5914
vn -0.0000 -0.9400 0.3411
vn -0.0000 -0.9060 -0.4232
vn -0.0000 -0.7287 -0.6849
vn -0.1059 0.9944 -0.0000
vn -0.0090 0.9587 0.2844
vn -0.0277 0.9842 0.1747
vn -0.0093 0.7095 -0.7046
vn -0.0087 0.9340 -0.3572
vn -0.0003 1.0000 -0.0000
vn 0.0027 -1.0000 -0.0037
vn 0.0048 -1.0000 -0.0036
vn -0.0075 0.7814 0.6240
vn -0.0477 0.9143 0.4022
vn -0.0108 0.7943 0.6075
vn -0.0000 0.7508 0.6606
vn -0.2158 -0.8938 -0.3932
vn -0.2088 -0.8849 -0.4164
vn -0.1262 -0.7548 -0.6436
vn -0.0016 0.9521 0.3057
vn -0.1210 -0.7453 -0.6557
vn 0.0535 -0.9502 -0.3071
vn 0.1365 0.9811 0.1374
vn 0.0417 0.9988 -0.0252
vn 0.0862 0.9939 -0.0688
vn 0.0668 0.9965 -0.0498
vn 0.1544 -0.9768 -0.1483
vn 0.2181 -0.9759 0.0037
vn 0.0014 1.0000 -0.0015
vn 0.0028 1.0000 -0.0031
vn 0.0059 1.0000 -0.0047
vn 0.0029 1.0000 -0.0023
vn 0.2658 -0.9639 0.0141
vn 0.0054 -1.0000 -0.0075
vn 0.0099 -0.9999 -0.0074
vn 0.0094 -1.0000 -0.0035
vn -0.0125 0.9080 -0.4189
vn -0.0503 0.9652 -0.2566
vn -0.0094 0.9021 -0.4315
vn -0.0000 0.8829 -0.4695
vn -0.2272 -0.9411 0.2502
vn -0.1473 -0.8796 0.4524
vn -0.2193 -0.9369 0.2722
vn 0.0393 0.9621 -0.2699
vn -0.0000 0.9588 -0.2840
vn 0.0156 0.9603 -0.2784
vn -0.1418 -0.8740 0.4647
vn -0.0058 -0.9774 0.2111
vn 0.0654 0.9633 -0.2602
vn 0.1446 0.9814 -0.1259
vn 0.2095 -0.9725 0.1020
vn 0.2028 -0.9786 0.0332
vn 0.1950 -0.9774 0.0814
vn 0.0129 0.9999 -0.0049
vn 0.0062 1.0000 -0.0024
vn 0.2238 -0.9745 0.0133
vn 0.0202 -0.9998 -0.0074
vn -0.0097 0.9132 0.4075
vn -0.0506 0.9693 0.2408
vn -0.0127 0.9183 0.3957
vn -0.0000 0.8956 0.4449
vn -0.2282 -0.9449 -0.2347
vn -0.2200 -0.9412 -0.2565
vn -0.1493 -0.8913 -0.4281
vn -0.0800 0.9847 0.1547
vn -0.1438 -0.8863 -0.4403
vn 0.0693 -0.9928 -0.0973
vn 0.1701 0.9722 0.1609
vn 0.1793 0.9698 0.1655
vn 0.1238 0.9828 0.1374
vn 0.1152 0.9844 0.1330
vn 0.1919 -0.9814 -0.0030
vn 0.1629 -0.9860 0.0360
vn 0.0199 0.9998 -0.0039
vn 0.0094 1.0000 -0.0019
vn 0.2037 -0.9789 -0.0157
vn 0.0316 -0.9995 -0.0075
vn 0.0321 -0.9995 -0.0075
vn -0.0124 0.8969 -0.4420
vn -0.0501 0.9608 -0.2728
vn -0.0092 0.8902 -0.4554
vn -0.0000 0.8696 -0.4938
vn -0.2263 -0.9370 0.2660
vn -0.1452 -0.8671 0.4765
vn -0.2186 -0.9323 0.2882
vn -0.0000 0.8637 -0.5041
vn -0.1397 -0.8611 0.4889
vn 0.0097 -0.8661 0.4997
vn 0.0130 -0.8854 0.4647
vn 0.0146 -0.8944 0.4470
vn 0.1107 0.9523 -0.2843
vn 0.0998 0.9950 -0.0068
vn 0.1428 0.9897 -0.0109
vn 0.0295 -0.9621 0.2712
vn 0.0748 0.9972 -0.0044
vn 0.2036 -0.9790 -0.0127
vn 0.1565 -0.9876 -0.0094
vn 0.1254 -0.9921 -0.0074
vn 0.1486 -0.9888 -0.0093
vn 0.1140 -0.9935 -0.0074
vn 0.2066 -0.9783 -0.0127
vn 0.0680 0.9977 -0.0044
vn 0.0934 0.9956 -0.0067
vn 0.0214 -0.9243 -0.3812
vn 0.0413 -0.9698 -0.2403
vn 0.0181 -0.9148 -0.4035
vn 0.1390 0.9902 -0.0109
vn 0.1137 0.9680 0.2237
vn 0.0134 -0.9006 -0.4344
vn -0.2202 -0.9427 -0.2507
vn -0.1445 -0.8906 -0.4311
vn -0.1501 -0.8955 -0.4190
vn -0.0000 0.9031 0.4295
vn -0.2285 -0.9462 -0.2290
vn -0.0000 0.9001 0.4357
vn -0.0098 0.9171 0.3985
vn -0.0128 0.9220 0.3870
vn -0.0506 0.9707 0.2349
vn -0.0125 0.9035 -0.4285
vn -0.0503 0.9634 -0.2633
vn -0.0093 0.8972 -0.4414
vn -0.0000 0.8775 -0.4796
vn -0.2268 -0.9395 0.2567
vn -0.1464 -0.8745 0.4624
vn -0.2190 -0.9350 0.2788
vn -0.0000 0.8717 -0.4901
vn -0.1410 -0.8687 0.4748
vn 0.0163 -0.8740 0.4856
vn 0.0216 -0.8901 0.4552
vn 0.0266 -0.9045 0.4256
vn 0.1133 0.9548 -0.2748
vn 0.0873 0.9962 -0.0066
vn 0.1355 0.9907 -0.0109
vn 0.0526 -0.9638 0.2614
vn 0.0617 0.9981 -0.0044
vn 0.2095 -0.9777 -0.0126
vn 0.1406 -0.9900 -0.0092
vn 0.1034 -0.9946 -0.0074
vn 0.1326 -0.9911 -0.0091
vn 0.0937 -0.9956 -0.0074
vn 0.2121 -0.9772 -0.0126
vn 0.0559 0.9984 -0.0044
vn 0.0816 0.9966 -0.0066
vn 0.0405 -0.8930 -0.4483
vn 0.0802 -0.9510 -0.2987
vn 0.0265 -0.8673 -0.4970
vn 0.1322 0.9912 -0.0109
vn 0.0957 0.9541 0.2838
vn 0.0186 -0.8516 -0.5238
vn -0.2157 -0.9174 -0.3343
vn -0.1333 -0.8215 -0.5543
vn -0.1387 -0.8290 -0.5417
vn -0.0000 0.8543 0.5197
vn -0.2230 -0.9237 -0.3116
vn -0.0000 0.8289 0.5593
vn -0.0085 0.8537 0.5207
vn -0.0118 0.8627 0.5056
vn -0.0494 0.9464 0.3193
vn -0.0125 0.9029 -0.4298
vn -0.0502 0.9632 -0.2642
vn -0.0093 0.8966 -0.4428
vn -0.0000 0.8768 -0.4809
vn -0.2268 -0.9393 0.2576
vn -0.1463 -0.8738 0.4638
vn -0.2190 -0.9348 0.2797
vn -0.0000 0.8990 -0.4379
vn -0.1409 -0.8680 0.4761
vn 0.0226 -0.9012 0.4329
vn 0.0305 -0.9134 0.4060
vn 0.0436 -0.9316 0.3608
vn 0.1090 0.9643 -0.2413
vn 0.0754 0.9971 -0.0065
vn 0.1287 0.9916 -0.0109
vn 0.0804 -0.9706 0.2267
vn 0.0496 0.9988 -0.0044
vn 0.2149 -0.9765 -0.0126
vn 0.1232 -0.9923 -0.0090
vn 0.0829 -0.9965 -0.0074
vn 0.1117 -0.9937 -0.0088
vn 0.0709 -0.9975 -0.0074
vn 0.2181 -0.9759 -0.0126
vn 0.0425 0.9991 -0.0044
vn 0.0683 0.9976 -0.0064
vn 0.0942 -0.9734 -0.2090
vn 0.1247 0.9921 -0.0109
vn 0.1095 0.9750 0.1931
vn 0.0265 -0.9229 -0.3840
vn -0.2201 -0.9418 -0.2540
vn -0.1441 -0.8881 -0.4364
vn -0.1496 -0.8931 -0.4243
vn -0.0000 0.9254 0.3789
vn -0.2283 -0.9455 -0.2323
vn -0.0000 0.8975 0.4410
vn -0.0097 0.9148 0.4037
vn -0.0127 0.9199 0.3920
vn -0.1451 -0.9885 0.0439
vn -0.0506 0.9699 0.2383
vn -0.0129 0.9275 -0.3735
vn -0.0507 0.9728 -0.2259
vn -0.0100 0.9231 -0.3844
vn -0.1602 -0.9871 0.0035
vn -0.0000 0.9069 -0.4213
vn -0.1512 -0.9018 0.4048
vn -0.2206 -0.9449 0.2418
vn -0.0000 0.9261 -0.3772
vn -0.1456 -0.8973 0.4168
vn 0.0304 -0.9279 0.3716
vn 0.1119 0.9725 -0.2045
vn 0.0606 0.9981 -0.0063
vn 0.1207 0.9926 -0.0107
vn 0.1058 -0.9762 0.1890
vn 0.0347 0.9994 -0.0044
vn 0.2213 -0.9751 -0.0128
vn 0.0981 -0.9951 -0.0087
vn 0.0577 -0.9983 -0.0074
vn 0.0442 -0.9990 -0.0074
vn 0.0822 -0.9966 -0.0115
vn 0.0122 0.9999 -0.0020
vn 0.2172 -0.9759 -0.0212
vn 0.0270 0.9996 -0.0044
vn 0.0098 -0.9955 0.0943
vn 0.0539 0.9953 -0.0804
vn 0.2696 0.9514 -0.1489
vn 0.1566 -0.9471 0.2800
vn -0.1491 -0.8898 0.4314
vn -0.1436 -0.8847 0.4435
vn -0.2199 -0.9406 0.2585
vn -0.0785 0.9662 -0.2456
vn -0.2280 -0.9444 0.2368
vn -0.0000 0.8939 -0.4482
vn -0.0127 0.9170 -0.3987
vn -0.0097 0.9117 -0.4106
vn -0.1455 -0.9886 -0.0395
vn -0.0505 0.9687 -0.2428
vn 0.0819 -0.9612 -0.2635
vn 0.0871 -0.9749 -0.2049
vn 0.0758 -0.9421 -0.3266
vn 0.1185 0.9929 -0.0104
vn 0.1050 0.9829 0.1515
vn 0.0741 -0.9363 -0.3432
vn -0.2212 -0.9509 -0.2166
vn -0.1485 -0.9150 -0.3752
vn -0.1542 -0.9187 -0.3636
vn -0.0000 0.9523 0.3052
vn -0.0000 0.9252 0.3794
vn -0.0104 0.9389 0.3440
vn -0.0132 0.9422 0.3347
vn -0.0510 0.9783 0.2006
vt 0.037741 0.948432
vt 0.037930 0.987342
vt 0.026428 0.984258
vt 0.026221 0.945603
vt 0.074116 0.153452
vt 0.074103 0.157185
vt 0.034773 0.157149
vt 0.034788 0.153381
vt 0.506153 0.029217
vt 0.506179 0.035915
vt 0.486899 0.043588
vt 0.486870 0.036884
vt 0.543940 0.959730
vt 0.544707 0.986460
vt 0.529104 0.990275
vt 0.528272 0.963273
vt 0.505878 0.066306
vt 0.505842 0.074061
vt 0.491735 0.062296
vt 0.491774 0.054540
vt 0.055283 0.113026
vt 0.055184 0.123271
vt 0.030415 0.123247
vt 0.030481 0.116916
vt 0.966986 0.054890
vt 0.967027 0.062479
vt 0.949525 0.055861
vt 0.949486 0.048268
vt 0.986904 0.963472
vt 0.986061 0.990478
vt 0.970203 0.992702
vt 0.970994 0.965537
vt 0.528632 0.036329
vt 0.528655 0.042916
vt 0.471343 0.950929
vt 0.470818 0.989906
vt 0.452749 0.986892
vt 0.453214 0.948107
vt 0.472186 0.913263
vt 0.455476 0.913423
vt 0.980288 0.189586
vt 0.980513 0.228692
vt 0.965553 0.225265
vt 0.964906 0.186760
vt 0.708755 0.123312
vt 0.708811 0.128236
vt 0.676551 0.128215
vt 0.676500 0.123231
vt 0.548304 0.189509
vt 0.548031 0.213692
vt 0.533601 0.225961
vt 0.533839 0.186580
vt 0.111888 0.151704
vt 0.111864 0.159404
vt 0.038412 0.908737
vt 0.025509 0.908548
vt 0.037023 0.872320
vt 0.024985 0.870694
vt 0.149215 0.147848
vt 0.149180 0.160763
vt 0.471828 0.873290
vt 0.456222 0.875194
vt 0.983070 0.263210
vt 0.966299 0.262952
vt 0.644867 0.129474
vt 0.644724 0.114009
vt 0.545944 0.248812
vt 0.532941 0.263846
vt 0.472405 0.831162
vt 0.456777 0.832830
vt 0.036048 0.831160
vt 0.024201 0.829383
vt 0.984706 0.300176
vt 0.968919 0.298211
vt 0.612806 0.126026
vt 0.612661 0.108484
vt 0.544097 0.300129
vt 0.531762 0.301429
vt 0.033625 0.338092
vt 0.021548 0.339175
vt 0.478999 0.341029
vt 0.463085 0.339832
vt 0.984972 0.343098
vt 0.969158 0.341399
vt 0.577659 0.126038
vt 0.577532 0.108299
vt 0.542535 0.341328
vt 0.530557 0.343022
vt 0.572503 0.300001
vt 0.571223 0.341333
vt 0.062511 0.338209
vt 0.064346 0.831272
vt 0.574127 0.248707
vt 0.065126 0.872513
vt 0.572954 0.207027
vt 0.066287 0.908983
vt 0.068702 0.941838
vt 0.573222 0.182256
vt 0.985324 0.028378
vt 0.985302 0.032810
vt 0.971186 0.040502
vt 0.971206 0.036067
vt 0.536367 0.047837
vt 0.536336 0.055575
vt 0.569270 0.965362
vt 0.569956 0.992524
vt 0.068839 0.980134
vt 0.569163 0.921116
vt 0.540184 0.921104
vt 0.064675 0.186525
vt 0.064778 0.215103
vt 0.032500 0.209542
vt 0.032356 0.180464
vt 0.480483 0.186081
vt 0.480097 0.214836
vt 0.461566 0.216719
vt 0.461928 0.188144
vt 0.706669 0.155042
vt 0.706691 0.160738
vt 0.686847 0.160736
vt 0.686814 0.151450
vt 0.021464 0.212968
vt 0.021309 0.184209
vt 0.988476 0.921291
vt 0.971140 0.921283
vt 0.093755 0.106053
vt 0.093577 0.127307
vt 0.526717 0.921099
vt 0.539394 0.882761
vt 0.527269 0.881231
vt 0.127492 0.107316
vt 0.127358 0.125668
vt 0.987949 0.881415
vt 0.971934 0.882933
vt 0.568480 0.882772
vt 0.062956 0.256589
vt 0.034088 0.256472
vt 0.480540 0.258287
vt 0.463279 0.258217
vt 0.655499 0.164396
vt 0.655435 0.144911
vt 0.020673 0.256417
vt 0.568698 0.839640
vt 0.539644 0.839629
vt 0.987712 0.838534
vt 0.971713 0.839793
vt 0.164026 0.107396
vt 0.163914 0.125704
vt 0.527531 0.838359
vt 0.062352 0.295167
vt 0.033416 0.295049
vt 0.479573 0.298247
vt 0.463633 0.296796
vt 0.627343 0.162880
vt 0.627293 0.145887
vt 0.021318 0.296387
vt 0.442952 0.339750
vt 0.443465 0.296714
vt 0.951452 0.839785
vt 0.949153 0.341396
vt 0.443158 0.258135
vt 0.951651 0.882925
vt 0.444929 0.211222
vt 0.950931 0.921275
vt 0.445278 0.182148
vt 0.947585 0.959905
vt 0.434446 0.989533
vt 0.434911 0.950575
vt 0.946893 0.986639
vt 0.929212 0.073997
vt 0.929177 0.066391
vt 0.944757 0.227701
vt 0.944188 0.189401
vt 0.435689 0.913025
vt 0.436513 0.875076
vt 0.946641 0.262807
vt 0.437053 0.832752
vt 0.948883 0.298302
vt 0.565608 0.025606
vt 0.565626 0.032014
vt 0.605043 0.035550
vt 0.605056 0.041733
vt 0.409638 0.339615
vt 0.410092 0.296579
vt 0.917929 0.839773
vt 0.916052 0.341391
vt 0.409865 0.258000
vt 0.918091 0.882912
vt 0.408623 0.216504
vt 0.917494 0.921261
vt 0.408923 0.187928
vt 0.917382 0.965514
vt 0.400755 0.985226
vt 0.401161 0.946617
vt 0.916788 0.992678
vt 0.895294 0.055823
vt 0.895265 0.048212
vt 0.913095 0.225955
vt 0.913348 0.185424
vt 0.402066 0.910009
vt 0.403879 0.874812
vt 0.914317 0.262010
vt 0.404416 0.832622
vt 0.915759 0.298447
vt 0.643875 0.022214
vt 0.643884 0.028229
vt 0.373983 0.339471
vt 0.374374 0.296433
vt 0.882051 0.839759
vt 0.880627 0.341385
vt 0.374232 0.257855
vt 0.882174 0.882898
vt 0.375437 0.210939
vt 0.881709 0.921246
vt 0.375703 0.181865
vt 0.879560 0.959875
vt 0.367482 0.988864
vt 0.367105 0.947361
vt 0.879113 0.986609
vt 0.859021 0.074008
vt 0.858997 0.066377
vt 0.878578 0.225154
vt 0.877526 0.189148
vt 0.368691 0.913389
vt 0.369002 0.874592
vt 0.879341 0.261841
vt 0.369486 0.832483
vt 0.880340 0.298611
vt 0.940876 0.021820
vt 0.940894 0.017234
vt 0.093609 0.295294
vt 0.093712 0.338335
vt 0.602212 0.341338
vt 0.600083 0.839652
vt 0.094137 0.256716
vt 0.599898 0.882785
vt 0.093042 0.209789
vt 0.600467 0.921129
vt 0.092971 0.180712
vt 0.603181 0.959756
vt 0.095903 0.948940
vt 0.095997 0.987875
vt 0.603733 0.986487
vt 0.569052 0.066319
vt 0.569027 0.074052
vt 0.606458 0.189695
vt 0.606221 0.213764
vt 0.096420 0.909249
vt 0.095496 0.872721
vt 0.604589 0.248594
vt 0.094913 0.831393
vt 0.603214 0.299862
vt 0.639272 0.299700
vt 0.638562 0.341344
vt 0.130309 0.338484
vt 0.130766 0.831536
vt 0.640345 0.248461
vt 0.131138 0.872965
vt 0.639704 0.207111
vt 0.131794 0.909561
vt 0.133302 0.942398
vt 0.639912 0.182473
vt 0.607397 0.047911
vt 0.607378 0.055624
vt 0.637249 0.965392
vt 0.637686 0.992554
vt 0.133333 0.980721
vt 0.637186 0.921145
vt 0.131911 0.186799
vt 0.131935 0.215377
vt 0.636752 0.882800
vt 0.130711 0.256865
vt 0.636896 0.839666
vt 0.130270 0.295443
vt 0.907834 0.041383
vt 0.907851 0.036640
vt 0.162741 0.295574
vt 0.162722 0.338615
vt 0.670757 0.341350
vt 0.669502 0.839678
vt 0.163104 0.256996
vt 0.669393 0.882813
vt 0.162576 0.210072
vt 0.669707 0.921158
vt 0.162587 0.180995
vt 0.671224 0.959785
vt 0.162799 0.949525
vt 0.162782 0.988489
vt 0.671531 0.986517
vt 0.641162 0.066333
vt 0.641149 0.074041
vt 0.673196 0.189909
vt 0.673034 0.228692
vt 0.163151 0.909838
vt 0.162724 0.873181
vt 0.672038 0.263189
vt 0.162520 0.831662
vt 0.671240 0.299555
vt 0.869036 0.022726
vt 0.869050 0.017791
vt 0.697156 0.299438
vt 0.696836 0.341354
vt 0.188977 0.338721
vt 0.188242 0.831764
vt 0.697725 0.263093
vt 0.188321 0.873356
vt 0.697536 0.222622
vt 0.188568 0.910062
vt 0.189193 0.943473
vt 0.697663 0.183309
vt 0.668492 0.047975
vt 0.668484 0.055667
vt 0.696078 0.965417
vt 0.696299 0.992580
vt 0.189134 0.981873
vt 0.696052 0.921169
vt 0.190093 0.187036
vt 0.190049 0.215614
vt 0.695835 0.882823
vt 0.189343 0.257103
vt 0.695914 0.839688
vt 0.189042 0.295681
vt 0.834405 0.042403
vt 0.834416 0.037304
vt 0.221393 0.295813
vt 0.221271 0.338852
vt 0.728915 0.341359
vt 0.728403 0.839701
vt 0.221617 0.257234
vt 0.728359 0.882836
vt 0.221569 0.210312
vt 0.728457 0.921183
vt 0.221651 0.181236
vt 0.728958 0.959810
vt 0.219661 0.949656
vt 0.219551 0.988609
vt 0.729056 0.986542
vt 0.701971 0.066346
vt 0.701968 0.074031
vt 0.729747 0.189711
vt 0.729679 0.228417
vt 0.219856 0.910338
vt 0.219821 0.873571
vt 0.729342 0.262976
vt 0.219879 0.831889
vt 0.729061 0.299294
vt 0.806308 0.025200
vt 0.806316 0.019960
vt 0.764710 0.299133
vt 0.764725 0.341365
vt 0.257319 0.338998
vt 0.255194 0.832029
vt 0.764659 0.262845
vt 0.255002 0.873812
vt 0.764685 0.222767
vt 0.254809 0.910647
vt 0.254586 0.944101
vt 0.764682 0.168748
vt 0.739234 0.048049
vt 0.739237 0.055715
vt 0.764614 0.965447
vt 0.764582 0.992610
vt 0.254420 0.982534
vt 0.764630 0.921197
vt 0.257868 0.187312
vt 0.257745 0.215889
vt 0.764665 0.882850
vt 0.257642 0.257381
vt 0.764669 0.839714
vt 0.257505 0.295959
vt 0.771540 0.042262
vt 0.771545 0.036856
vt 0.295708 0.296114
vt 0.295455 0.339153
vt 0.802610 0.341372
vt 0.803038 0.839729
vt 0.295754 0.257536
vt 0.803075 0.882866
vt 0.296315 0.210616
vt 0.802900 0.921214
vt 0.296486 0.181542
vt 0.802114 0.959842
vt 0.291713 0.950242
vt 0.291484 0.989223
vt 0.801947 0.986575
vt 0.778534 0.066361
vt 0.778544 0.074020
vt 0.801438 0.175051
vt 0.801527 0.228466
vt 0.291822 0.910974
vt 0.292243 0.874067
vt 0.802052 0.262706
vt 0.292555 0.832178
vt 0.802464 0.298963
vt 0.732575 0.026311
vt 0.732577 0.020713
vt 0.845523 0.341379
vt 0.845279 0.298769
vt 0.334872 0.832346
vt 0.338650 0.339328
vt 0.844447 0.262536
vt 0.334454 0.874356
vt 0.844777 0.221841
vt 0.333783 0.911326
vt 0.332601 0.945053
vt 0.844292 0.184156
vt 0.822844 0.055773
vt 0.822826 0.048136
vt 0.845850 0.992647
vt 0.846182 0.965483
vt 0.332308 0.983543
vt 0.846249 0.921231
vt 0.338307 0.216218
vt 0.338525 0.187641
vt 0.846584 0.882883
vt 0.338923 0.257711
vt 0.846500 0.839745
vt 0.338979 0.296290
vt 0.691122 0.037459
vt 0.691125 0.043255
vt 0.189221 0.144102
vt 0.189178 0.163080
vt 0.596175 0.145760
vt 0.596220 0.162900
s 1
usemtl Material
f 42/1/1 39/2/2 7/3/3 14/4/4
f 15/5/5 14/6/4 7/7/3 8/8/5
f 9/9/6 11/10/6 5/11/6 6/12/6
f 56/13/7 40/14/7 4/15/7 49/16/7
f 40/17/8 38/18/8 3/19/8 4/20/8
f 52/21/9 50/22/9 1/23/9 2/24/9
f 2/25/8 1/26/8 10/27/8 12/28/8
f 52/29/10 2/30/11 12/31/11 54/32/12
f 83/33/6 81/34/6 11/10/6 9/9/6
f 16/35/13 5/36/13 11/37/13 18/38/13
f 20/39/14 16/35/14 18/38/14 21/40/14
f 6/41/15 13/42/16 17/43/17 9/44/17
f 6/45/15 5/46/9 16/47/9 13/48/16
f 37/49/18 41/50/18 15/51/18 8/52/18
f 19/53/5 23/54/19 14/6/4 15/5/5
f 43/55/20 42/1/1 14/4/4 23/56/19
f 45/57/21 43/55/22 23/56/22 29/58/23
f 25/59/5 29/60/23 23/54/19 19/53/5
f 26/61/24 20/39/25 21/40/26 27/62/27
f 13/42/28 22/63/29 24/64/30 17/43/28
f 13/48/16 16/47/9 20/65/25 22/66/9
f 41/50/31 44/67/31 19/68/31 15/51/31
f 32/69/32 26/61/24 27/62/27 33/70/33
f 47/71/34 45/57/21 29/58/23 35/72/35
f 22/63/29 28/73/36 30/74/37 24/64/30
f 22/66/9 20/65/25 26/75/24 28/76/38
f 44/67/39 46/77/40 25/78/41 19/68/42
f 80/79/43 47/71/34 35/72/35 74/80/44
f 78/81/45 32/69/32 33/70/33 79/82/46
f 28/73/38 34/83/47 36/84/48 30/74/49
f 28/76/38 26/75/24 32/85/32 34/86/47
f 46/77/40 48/87/50 31/88/51 25/78/41
f 148/89/52 150/90/53 48/87/54 46/77/40
f 158/91/55 149/92/56 47/71/56 80/79/55
f 146/93/57 148/89/52 46/77/40 44/67/39
f 149/92/58 147/94/59 45/57/60 47/71/61
f 143/95/62 146/93/63 44/67/63 41/50/64
f 147/94/59 145/96/65 43/55/66 45/57/60
f 145/96/67 144/97/67 42/1/67 43/55/67
f 141/98/68 143/95/62 41/50/64 37/49/68
f 8/99/6 7/100/6 39/101/6 37/102/6
f 160/103/8 142/104/8 38/18/8 40/17/8
f 151/105/69 160/106/70 40/14/70 56/13/71
f 144/97/72 159/107/72 39/2/72 42/1/72
f 153/108/73 151/105/69 56/13/71 60/109/73
f 142/110/74 152/111/75 55/112/76 38/113/74
f 1/114/77 50/115/77 51/116/77 10/117/77
f 4/118/5 3/119/78 53/120/79 49/121/5
f 38/113/80 55/112/81 53/122/79 3/123/78
f 57/124/82 52/29/10 54/32/12 59/125/82
f 57/126/9 62/127/83 50/22/9 52/21/9
f 60/109/84 56/13/84 49/16/84 61/128/84
f 68/129/85 60/109/86 61/128/87 69/130/88
f 65/131/89 70/132/90 62/127/83 57/126/9
f 65/133/89 57/124/82 59/125/82 67/134/91
f 155/135/92 153/108/92 60/109/92 68/129/92
f 152/111/75 154/136/93 64/137/93 55/112/76
f 50/115/94 62/138/94 63/139/94 51/116/94
f 49/121/5 53/120/79 58/140/95 61/141/87
f 55/112/81 64/137/96 58/142/95 53/122/79
f 157/143/97 155/135/97 68/129/97 76/144/97
f 73/145/98 65/133/89 67/134/91 75/146/99
f 73/147/98 78/148/45 70/132/90 65/131/89
f 76/144/100 68/129/85 69/130/88 77/149/101
f 154/136/102 156/150/102 72/151/102 64/137/102
f 62/138/83 70/152/90 71/153/103 63/139/104
f 61/141/87 58/140/95 66/154/105 69/155/88
f 64/137/96 72/151/106 66/156/105 58/142/95
f 48/87/50 76/144/100 77/149/101 31/88/51
f 34/86/47 32/85/32 78/148/45 73/147/98
f 34/83/47 73/145/98 75/146/99 36/84/48
f 150/90/97 157/143/97 76/144/97 48/87/97
f 156/150/107 158/91/55 80/79/55 72/151/107
f 70/152/90 78/81/45 79/82/46 71/153/103
f 72/151/106 80/79/43 74/80/44 66/156/105
f 71/153/107 79/82/55 100/157/55 98/158/107
f 36/84/108 75/146/97 99/159/97 92/160/109
f 63/139/102 71/153/102 98/158/102 96/161/102
f 75/146/97 67/134/97 97/162/97 99/159/97
f 51/116/110 63/139/111 96/161/111 94/163/112
f 67/134/92 59/125/92 95/164/92 97/162/92
f 10/117/113 51/116/110 94/163/112 84/165/113
f 59/125/114 54/32/115 93/166/116 95/164/114
f 18/38/117 11/37/117 81/167/117 86/168/117
f 54/32/115 12/31/118 82/169/118 93/166/116
f 12/28/8 10/27/8 84/170/8 82/171/8
f 9/44/119 17/43/119 85/172/119 83/173/119
f 21/40/120 18/38/120 86/168/120 87/174/120
f 27/62/121 21/40/121 87/174/122 89/175/123
f 17/43/124 24/64/30 88/176/125 85/172/124
f 33/70/126 27/62/127 89/175/128 91/177/129
f 24/64/30 30/74/37 90/178/130 88/176/125
f 79/82/55 33/70/126 91/177/129 100/157/55
f 30/74/131 36/84/108 92/160/109 90/178/132
f 101/179/6 119/180/6 81/34/6 83/33/6
f 121/181/6 139/182/6 119/180/6 101/179/6
f 98/158/107 100/157/55 118/183/55 116/184/107
f 92/160/109 99/159/97 117/185/97 110/186/133
f 96/161/102 98/158/102 116/184/102 114/187/102
f 99/159/97 97/162/97 115/188/97 117/185/97
f 94/163/134 96/161/135 114/187/135 112/189/136
f 97/162/92 95/164/92 113/190/92 115/188/92
f 84/165/137 94/163/134 112/189/136 102/191/137
f 95/164/138 93/166/139 111/192/140 113/190/138
f 86/168/141 81/167/142 119/193/142 104/194/143
f 93/166/139 82/169/144 120/195/144 111/192/140
f 82/171/8 84/170/8 102/196/8 120/197/8
f 83/173/145 85/172/145 103/198/145 101/199/145
f 87/174/146 86/168/141 104/194/143 105/200/146
f 89/175/123 87/174/122 105/200/147 107/201/147
f 85/172/148 88/176/125 106/202/149 103/198/150
f 91/177/129 89/175/128 107/201/151 109/203/152
f 88/176/125 90/178/130 108/204/153 106/202/149
f 100/157/55 91/177/129 109/203/152 118/183/55
f 90/178/132 92/160/109 110/186/133 108/204/154
f 283/205/6 281/206/6 139/182/6 121/181/6
f 116/184/107 118/183/55 138/207/55 136/208/107
f 110/186/133 117/185/97 137/209/97 130/210/97
f 114/187/102 116/184/102 136/208/102 134/211/102
f 117/185/97 115/188/97 135/212/97 137/209/97
f 112/189/155 114/187/156 134/211/156 132/213/157
f 115/188/92 113/190/92 133/214/92 135/212/92
f 102/191/158 112/189/155 132/213/157 122/215/158
f 113/190/159 111/192/160 131/216/161 133/214/159
f 104/194/162 119/193/162 139/217/162 124/218/162
f 111/192/160 120/195/163 140/219/163 131/216/161
f 120/197/8 102/196/8 122/220/8 140/221/8
f 101/199/164 103/198/164 123/222/164 121/223/164
f 105/200/165 104/194/166 124/218/166 125/224/167
f 107/201/168 105/200/165 125/224/167 127/225/168
f 103/198/150 106/202/149 126/226/169 123/222/170
f 109/203/152 107/201/151 127/225/171 129/227/172
f 106/202/149 108/204/153 128/228/173 126/226/169
f 118/183/55 109/203/152 129/227/172 138/207/55
f 108/204/154 110/186/133 130/210/174 128/228/175
f 37/102/6 39/101/6 159/229/6 141/230/6
f 178/231/107 180/232/55 158/91/55 156/150/107
f 172/233/97 179/234/97 157/143/97 150/90/97
f 176/235/102 178/231/102 156/150/102 154/136/102
f 179/234/97 177/236/97 155/135/97 157/143/97
f 174/237/176 176/235/177 154/136/177 152/111/178
f 177/236/92 175/238/92 153/108/92 155/135/92
f 164/239/179 174/237/176 152/111/178 142/110/179
f 175/238/180 173/240/181 151/105/182 153/108/180
f 166/241/183 161/242/183 159/107/183 144/97/183
f 173/240/181 162/243/184 160/106/184 151/105/182
f 162/244/8 164/245/8 142/104/8 160/103/8
f 163/246/185 165/247/186 143/95/187 141/98/185
f 167/248/188 166/241/188 144/97/188 145/96/188
f 169/249/189 167/248/190 145/96/65 147/94/59
f 165/247/186 168/250/191 146/93/191 143/95/187
f 171/251/192 169/249/189 147/94/59 149/92/58
f 168/250/193 170/252/194 148/89/52 146/93/57
f 180/232/55 171/251/56 149/92/56 158/91/55
f 170/252/194 172/233/195 150/90/53 148/89/52
f 190/253/196 192/254/197 172/233/195 170/252/194
f 200/255/55 191/256/56 171/251/56 180/232/55
f 188/257/198 190/253/196 170/252/194 168/250/193
f 191/256/199 189/258/200 169/249/189 171/251/192
f 185/259/201 188/257/202 168/250/202 165/247/203
f 189/258/200 187/260/204 167/248/190 169/249/189
f 187/260/205 186/261/205 166/241/205 167/248/205
f 183/262/206 185/259/201 165/247/203 163/246/206
f 182/263/8 184/264/8 164/245/8 162/244/8
f 193/265/207 182/266/208 162/243/208 173/240/209
f 186/261/210 181/267/210 161/242/210 166/241/210
f 195/268/211 193/265/207 173/240/209 175/238/211
f 184/269/212 194/270/213 174/237/214 164/239/212
f 197/271/92 195/268/92 175/238/92 177/236/92
f 194/270/213 196/272/215 176/235/215 174/237/214
f 199/273/97 197/271/97 177/236/97 179/234/97
f 196/272/102 198/274/102 178/231/102 176/235/102
f 192/254/97 199/273/97 179/234/97 172/233/97
f 198/274/107 200/255/55 180/232/55 178/231/107
f 141/230/6 159/229/6 161/275/6 163/276/6
f 218/277/107 220/278/55 200/255/55 198/274/107
f 212/279/97 219/280/97 199/273/97 192/254/97
f 216/281/102 218/277/102 198/274/102 196/272/102
f 219/280/97 217/282/97 197/271/97 199/273/97
f 214/283/216 216/281/217 196/272/217 194/270/218
f 217/282/92 215/284/92 195/268/92 197/271/92
f 204/285/219 214/283/216 194/270/218 184/269/219
f 215/284/220 213/286/221 193/265/222 195/268/220
f 206/287/223 201/288/223 181/267/223 186/261/223
f 213/286/221 202/289/224 182/266/224 193/265/222
f 202/290/8 204/291/8 184/264/8 182/263/8
f 203/292/225 205/293/226 185/259/227 183/262/225
f 207/294/228 206/287/228 186/261/228 187/260/228
f 209/295/229 207/294/230 187/260/204 189/258/200
f 205/293/226 208/296/231 188/257/231 185/259/227
f 211/297/232 209/295/229 189/258/200 191/256/199
f 208/296/233 210/298/234 190/253/196 188/257/198
f 220/278/55 211/297/56 191/256/56 200/255/55
f 210/298/234 212/279/235 192/254/197 190/253/196
f 163/276/6 161/275/6 181/299/6 183/300/6
f 230/301/236 232/302/237 212/279/235 210/298/234
f 240/303/55 231/304/56 211/297/56 220/278/55
f 228/305/238 230/301/236 210/298/234 208/296/233
f 231/304/239 229/306/240 209/295/229 211/297/232
f 225/307/241 228/305/242 208/296/242 205/293/243
f 229/306/240 227/308/244 207/294/230 209/295/229
f 227/308/245 226/309/245 206/287/245 207/294/245
f 223/310/246 225/307/241 205/293/243 203/292/246
f 222/311/8 224/312/8 204/291/8 202/290/8
f 233/313/247 222/314/248 202/289/248 213/286/249
f 226/309/250 221/315/250 201/288/250 206/287/250
f 235/316/251 233/313/247 213/286/249 215/284/251
f 224/317/252 234/318/253 214/283/254 204/285/252
f 237/319/92 235/316/92 215/284/92 217/282/92
f 234/318/253 236/320/255 216/281/255 214/283/254
f 239/321/97 237/319/97 217/282/97 219/280/97
f 236/320/102 238/322/102 218/277/102 216/281/102
f 232/302/97 239/321/97 219/280/97 212/279/97
f 238/322/107 240/303/55 220/278/55 218/277/107
f 183/300/6 181/299/6 201/323/6 203/324/6
f 258/325/107 260/326/55 240/303/55 238/322/107
f 252/327/97 259/328/97 239/321/97 232/302/97
f 256/329/102 258/325/102 238/322/102 236/320/102
f 259/328/97 257/330/97 237/319/97 239/321/97
f 254/331/256 256/329/257 236/320/257 234/318/258
f 257/330/92 255/332/92 235/316/92 237/319/92
f 244/333/259 254/331/256 234/318/258 224/317/259
f 255/332/260 253/334/261 233/313/262 235/316/260
f 246/335/263 241/336/263 221/315/263 226/309/263
f 253/334/261 242/337/264 222/314/264 233/313/262
f 242/338/8 244/339/8 224/312/8 222/311/8
f 243/340/265 245/341/266 225/307/267 223/310/265
f 247/342/268 246/335/268 226/309/268 227/308/268
f 249/343/269 247/342/270 227/308/244 229/306/240
f 245/341/266 248/344/271 228/305/271 225/307/267
f 251/345/272 249/343/269 229/306/240 231/304/239
f 248/344/273 250/346/274 230/301/236 228/305/238
f 260/326/55 251/345/56 231/304/56 240/303/55
f 250/346/274 252/327/275 232/302/237 230/301/236
f 203/324/6 201/323/6 221/347/6 223/348/6
f 270/349/276 272/350/277 252/327/275 250/346/274
f 280/351/55 271/352/56 251/345/56 260/326/55
f 268/353/278 270/349/276 250/346/274 248/344/273
f 271/352/279 269/354/280 249/343/269 251/345/272
f 265/355/281 268/353/281 248/344/281 245/341/281
f 269/354/280 267/356/282 247/342/270 249/343/269
f 267/356/283 266/357/283 246/335/283 247/342/283
f 263/358/284 265/355/284 245/341/284 243/340/284
f 262/359/8 264/360/8 244/339/8 242/338/8
f 273/361/285 262/362/286 242/337/286 253/334/287
f 266/357/288 261/363/288 241/336/288 246/335/288
f 275/364/289 273/361/285 253/334/287 255/332/289
f 264/365/290 274/366/291 254/331/292 244/333/290
f 277/367/92 275/364/293 255/332/92 257/330/92
f 274/366/291 276/368/294 256/329/294 254/331/292
f 279/369/97 277/367/97 257/330/97 259/328/97
f 276/368/102 278/370/102 258/325/102 256/329/102
f 272/350/97 279/369/97 259/328/97 252/327/97
f 278/370/107 280/351/55 260/326/55 258/325/107
f 223/348/6 221/347/6 241/371/6 243/372/6
f 316/373/107 318/374/55 280/351/55 278/370/107
f 310/375/97 317/376/97 279/369/97 272/350/97
f 314/377/102 316/373/102 278/370/102 276/368/102
f 317/376/97 315/378/97 277/367/97 279/369/97
f 312/379/295 314/377/296 276/368/296 274/366/297
f 315/378/92 313/380/298 275/364/293 277/367/92
f 302/381/299 312/379/295 274/366/297 264/365/299
f 313/380/298 311/382/300 273/361/301 275/364/293
f 304/383/302 319/384/302 261/363/302 266/357/302
f 311/382/300 320/385/303 262/362/303 273/361/301
f 320/386/8 302/387/8 264/360/8 262/359/8
f 301/388/304 303/389/304 265/355/304 263/358/304
f 305/390/305 304/383/305 266/357/305 267/356/305
f 307/391/306 305/390/307 267/356/282 269/354/280
f 303/389/308 306/392/308 268/353/308 265/355/308
f 309/393/309 307/391/306 269/354/280 271/352/279
f 306/392/310 308/394/311 270/349/276 268/353/278
f 318/374/55 309/393/56 271/352/56 280/351/55
f 308/394/311 310/375/312 272/350/277 270/349/276
f 243/372/6 241/371/6 261/395/6 263/396/6
f 128/228/175 130/210/174 292/397/313 290/398/314
f 138/207/55 129/227/172 291/399/315 300/400/55
f 126/226/169 128/228/173 290/398/314 288/401/316
f 129/227/172 127/225/171 289/402/317 291/399/315
f 123/222/318 126/226/318 288/401/318 285/403/318
f 127/225/319 125/224/319 287/404/319 289/402/319
f 125/224/320 124/218/320 286/405/320 287/404/320
f 121/223/321 123/222/321 285/403/321 283/406/321
f 140/221/8 122/220/8 284/407/8 282/408/8
f 131/216/322 140/219/323 282/409/323 293/410/324
f 124/218/325 139/217/325 281/411/325 286/405/325
f 133/214/326 131/216/322 293/410/324 295/412/326
f 122/215/327 132/213/328 294/413/329 284/414/327
f 135/212/92 133/214/92 295/412/330 297/415/92
f 132/213/328 134/211/331 296/416/331 294/413/329
f 137/209/97 135/212/97 297/415/97 299/417/97
f 134/211/102 136/208/102 298/418/102 296/416/102
f 130/210/97 137/209/97 299/417/97 292/397/97
f 136/208/107 138/207/55 300/400/55 298/418/107
f 301/419/6 319/420/6 281/206/6 283/205/6
f 263/396/6 261/395/6 319/420/6 301/419/6
f 290/398/314 292/397/313 310/375/312 308/394/311
f 300/400/55 291/399/315 309/393/56 318/374/55
f 288/401/316 290/398/314 308/394/311 306/392/310
f 291/399/315 289/402/317 307/391/306 309/393/309
f 285/403/332 288/401/333 306/392/333 303/389/334
f 289/402/335 287/404/335 305/390/307 307/391/306
f 287/404/336 286/405/336 304/383/336 305/390/336
f 283/406/337 285/403/332 303/389/334 301/388/337
f 282/408/8 284/407/8 302/387/8 320/386/8
f 293/410/338 282/409/339 320/385/339 311/382/340
f 286/405/341 281/411/341 319/384/341 304/383/341
f 295/412/330 293/410/338 311/382/340 313/380/298
f 284/414/342 294/413/343 312/379/344 302/381/342
f 297/415/92 295/412/330 313/380/298 315/378/92
f 294/413/343 296/416/345 314/377/345 312/379/344
f 299/417/97 297/415/97 315/378/97 317/376/97
f 296/416/102 298/418/102 316/373/102 314/377/102
f 292/397/97 299/417/97 317/376/97 310/375/97
f 298/418/107 300/400/55 318/374/55 316/373/107
f 31/421/51 35/422/35 29/60/23 25/59/5
f 77/423/101 74/424/44 35/422/35 31/421/51
f 69/155/88 66/154/105 74/424/44 77/423/101
